<svg xmlns="http://www.w3.org/2000/svg" width="1600" height="1000" viewBox="0 0 1600 1000" role="img" aria-labelledby="title description">
  <title id="title">Human Eval Platform interface overview</title>
  <desc id="description">A generic diagram of the sign-in, instructions, evaluation, and results interfaces. All content is synthetic.</desc>

  <rect width="1600" height="1000" fill="#f4f6f8"/>
  <text x="56" y="58" fill="#17202a" font-family="DejaVu Sans, Arial, sans-serif" font-size="30" font-weight="700">Human Eval Platform</text>
  <text x="56" y="90" fill="#647184" font-family="DejaVu Sans, Arial, sans-serif" font-size="16">Four core views | Generic interface diagram | Sample content only</text>

  <g transform="translate(48 124)">
    <rect width="736" height="372" rx="8" fill="#ffffff" stroke="#d7dde5" stroke-width="2"/>
    <rect width="736" height="48" rx="8" fill="#ffffff"/>
    <path d="M0 48H736" stroke="#d7dde5" stroke-width="2"/>
    <circle cx="24" cy="24" r="6" fill="#d7dde5"/>
    <circle cx="44" cy="24" r="6" fill="#d7dde5"/>
    <circle cx="64" cy="24" r="6" fill="#d7dde5"/>
    <text x="92" y="30" fill="#647184" font-family="DejaVu Sans, Arial, sans-serif" font-size="14">evaluation.local</text>

    <circle cx="42" cy="82" r="18" fill="#176b5c"/>
    <text x="42" y="88" text-anchor="middle" fill="#ffffff" font-family="DejaVu Sans, Arial, sans-serif" font-size="16" font-weight="700">1</text>
    <text x="72" y="89" fill="#17202a" font-family="DejaVu Sans, Arial, sans-serif" font-size="20" font-weight="700">Participant Sign-in</text>

    <rect x="168" y="118" width="400" height="210" rx="8" fill="#ffffff" stroke="#d7dde5" stroke-width="2"/>
    <text x="196" y="153" fill="#17202a" font-family="DejaVu Sans, Arial, sans-serif" font-size="19" font-weight="700">Join an evaluation</text>
    <text x="196" y="182" fill="#647184" font-family="DejaVu Sans, Arial, sans-serif" font-size="14">Enter an approved participant identifier to continue.</text>
    <text x="196" y="220" fill="#2c3948" font-family="DejaVu Sans, Arial, sans-serif" font-size="13" font-weight="700">Participant identifier</text>
    <rect x="196" y="232" width="344" height="44" rx="5" fill="#f8fafb" stroke="#cfd6df"/>
    <text x="212" y="259" fill="#8a939d" font-family="DejaVu Sans, Arial, sans-serif" font-size="14">account-demo</text>
    <rect x="400" y="290" width="140" height="34" rx="5" fill="#176b5c"/>
    <text x="470" y="312" text-anchor="middle" fill="#ffffff" font-family="DejaVu Sans, Arial, sans-serif" font-size="14" font-weight="700">Continue</text>
  </g>

  <g transform="translate(816 124)">
    <rect width="736" height="372" rx="8" fill="#ffffff" stroke="#d7dde5" stroke-width="2"/>
    <rect width="736" height="48" rx="8" fill="#ffffff"/>
    <path d="M0 48H736" stroke="#d7dde5" stroke-width="2"/>
    <circle cx="24" cy="24" r="6" fill="#d7dde5"/>
    <circle cx="44" cy="24" r="6" fill="#d7dde5"/>
    <circle cx="64" cy="24" r="6" fill="#d7dde5"/>
    <text x="92" y="30" fill="#647184" font-family="DejaVu Sans, Arial, sans-serif" font-size="14">evaluation.local/instructions</text>

    <circle cx="42" cy="82" r="18" fill="#176b5c"/>
    <text x="42" y="88" text-anchor="middle" fill="#ffffff" font-family="DejaVu Sans, Arial, sans-serif" font-size="16" font-weight="700">2</text>
    <text x="72" y="89" fill="#17202a" font-family="DejaVu Sans, Arial, sans-serif" font-size="20" font-weight="700">Task Instructions</text>

    <rect x="28" y="114" width="304" height="172" rx="6" fill="#111820"/>
    <rect x="46" y="132" width="268" height="126" rx="4" fill="#2c3948"/>
    <circle cx="180" cy="195" r="29" fill="#ffffff" fill-opacity="0.92"/>
    <path d="M172 179L196 195L172 211Z" fill="#176b5c"/>
    <rect x="46" y="269" width="268" height="4" rx="2" fill="#647184"/>
    <rect x="46" y="269" width="104" height="4" rx="2" fill="#2d7ff9"/>

    <text x="360" y="127" fill="#17202a" font-family="DejaVu Sans, Arial, sans-serif" font-size="16" font-weight="700">Evaluation guide</text>
    <circle cx="368" cy="157" r="4" fill="#176b5c"/>
    <text x="382" y="162" fill="#2c3948" font-family="DejaVu Sans, Arial, sans-serif" font-size="14">Review the sample before starting.</text>
    <circle cx="368" cy="190" r="4" fill="#176b5c"/>
    <text x="382" y="195" fill="#2c3948" font-family="DejaVu Sans, Arial, sans-serif" font-size="14">Apply the same scale to every video.</text>
    <circle cx="368" cy="223" r="4" fill="#176b5c"/>
    <text x="382" y="228" fill="#2c3948" font-family="DejaVu Sans, Arial, sans-serif" font-size="14">Support ratings with observable evidence.</text>

    <rect x="28" y="306" width="186" height="38" rx="5" fill="#eef3f1" stroke="#c8ddd8"/>
    <text x="121" y="330" text-anchor="middle" fill="#176b5c" font-family="DejaVu Sans, Arial, sans-serif" font-size="13" font-weight="700">Dimension A</text>
    <rect x="226" y="306" width="186" height="38" rx="5" fill="#fff8ee" stroke="#e7c895"/>
    <text x="319" y="330" text-anchor="middle" fill="#7a4b10" font-family="DejaVu Sans, Arial, sans-serif" font-size="13" font-weight="700">Dimension B</text>
    <rect x="540" y="306" width="166" height="38" rx="5" fill="#176b5c"/>
    <text x="623" y="330" text-anchor="middle" fill="#ffffff" font-family="DejaVu Sans, Arial, sans-serif" font-size="13" font-weight="700">Start Evaluation</text>
  </g>

  <g transform="translate(48 544)">
    <rect width="736" height="408" rx="8" fill="#ffffff" stroke="#d7dde5" stroke-width="2"/>
    <rect width="736" height="48" rx="8" fill="#ffffff"/>
    <path d="M0 48H736" stroke="#d7dde5" stroke-width="2"/>
    <circle cx="24" cy="24" r="6" fill="#d7dde5"/>
    <circle cx="44" cy="24" r="6" fill="#d7dde5"/>
    <circle cx="64" cy="24" r="6" fill="#d7dde5"/>
    <text x="92" y="30" fill="#647184" font-family="DejaVu Sans, Arial, sans-serif" font-size="14">evaluation.local/evaluate</text>

    <circle cx="42" cy="82" r="18" fill="#176b5c"/>
    <text x="42" y="88" text-anchor="middle" fill="#ffffff" font-family="DejaVu Sans, Arial, sans-serif" font-size="16" font-weight="700">3</text>
    <text x="72" y="89" fill="#17202a" font-family="DejaVu Sans, Arial, sans-serif" font-size="20" font-weight="700">Evaluation Workspace</text>

    <rect x="26" y="112" width="390" height="170" rx="6" fill="#111820"/>
    <rect x="42" y="128" width="358" height="122" rx="4" fill="#2c3948"/>
    <path d="M194 174H246V226H194Z" fill="#647184"/>
    <circle cx="220" cy="200" r="19" fill="#ffffff" fill-opacity="0.92"/>
    <path d="M214 189L231 200L214 211Z" fill="#176b5c"/>
    <text x="42" y="271" fill="#ffffff" font-family="DejaVu Sans, Arial, sans-serif" font-size="12">Video 01</text>

    <rect x="26" y="294" width="390" height="88" rx="6" fill="#f8fafb" stroke="#d7dde5"/>
    <text x="42" y="318" fill="#17202a" font-family="DejaVu Sans, Arial, sans-serif" font-size="13" font-weight="700">Transcript</text>
    <rect x="42" y="332" width="338" height="7" rx="3" fill="#d7dde5"/>
    <rect x="42" y="349" width="312" height="7" rx="3" fill="#d7dde5"/>
    <rect x="42" y="366" width="244" height="7" rx="3" fill="#d7dde5"/>

    <text x="444" y="129" fill="#17202a" font-family="DejaVu Sans, Arial, sans-serif" font-size="16" font-weight="700">Dimension A | Subdimension 1</text>
    <text x="444" y="157" fill="#647184" font-family="DejaVu Sans, Arial, sans-serif" font-size="13">Rate the current video using the defined rubric.</text>
    <text x="444" y="194" fill="#2c3948" font-family="DejaVu Sans, Arial, sans-serif" font-size="13" font-weight="700">Score</text>
    <g transform="translate(444 206)">
      <rect width="38" height="34" rx="5" fill="#ffffff" stroke="#cfd6df"/>
      <rect x="46" width="38" height="34" rx="5" fill="#ffffff" stroke="#cfd6df"/>
      <rect x="92" width="38" height="34" rx="5" fill="#ffffff" stroke="#cfd6df"/>
      <rect x="138" width="38" height="34" rx="5" fill="#ffffff" stroke="#cfd6df"/>
      <rect x="184" width="38" height="34" rx="5" fill="#176b5c"/>
      <rect x="230" width="38" height="34" rx="5" fill="#ffffff" stroke="#cfd6df"/>
      <text x="19" y="22" text-anchor="middle" fill="#17202a" font-family="DejaVu Sans, Arial, sans-serif" font-size="13">0</text>
      <text x="65" y="22" text-anchor="middle" fill="#17202a" font-family="DejaVu Sans, Arial, sans-serif" font-size="13">1</text>
      <text x="111" y="22" text-anchor="middle" fill="#17202a" font-family="DejaVu Sans, Arial, sans-serif" font-size="13">2</text>
      <text x="157" y="22" text-anchor="middle" fill="#17202a" font-family="DejaVu Sans, Arial, sans-serif" font-size="13">3</text>
      <text x="203" y="22" text-anchor="middle" fill="#ffffff" font-family="DejaVu Sans, Arial, sans-serif" font-size="13">4</text>
      <text x="249" y="22" text-anchor="middle" fill="#17202a" font-family="DejaVu Sans, Arial, sans-serif" font-size="13">5</text>
    </g>
    <text x="444" y="272" fill="#2c3948" font-family="DejaVu Sans, Arial, sans-serif" font-size="13" font-weight="700">Evidence notes</text>
    <rect x="444" y="284" width="264" height="72" rx="6" fill="#ffffff" stroke="#cfd6df"/>
    <rect x="458" y="301" width="226" height="7" rx="3" fill="#d7dde5"/>
    <rect x="458" y="318" width="190" height="7" rx="3" fill="#d7dde5"/>
    <rect x="458" y="335" width="212" height="7" rx="3" fill="#d7dde5"/>
    <rect x="590" y="368" width="118" height="30" rx="5" fill="#176b5c"/>
    <text x="649" y="388" text-anchor="middle" fill="#ffffff" font-family="DejaVu Sans, Arial, sans-serif" font-size="13" font-weight="700">Next Item</text>
  </g>

  <g transform="translate(816 544)">
    <rect width="736" height="408" rx="8" fill="#ffffff" stroke="#d7dde5" stroke-width="2"/>
    <rect width="736" height="48" rx="8" fill="#ffffff"/>
    <path d="M0 48H736" stroke="#d7dde5" stroke-width="2"/>
    <circle cx="24" cy="24" r="6" fill="#d7dde5"/>
    <circle cx="44" cy="24" r="6" fill="#d7dde5"/>
    <circle cx="64" cy="24" r="6" fill="#d7dde5"/>
    <text x="92" y="30" fill="#647184" font-family="DejaVu Sans, Arial, sans-serif" font-size="14">evaluation.local/results</text>

    <circle cx="42" cy="82" r="18" fill="#176b5c"/>
    <text x="42" y="88" text-anchor="middle" fill="#ffffff" font-family="DejaVu Sans, Arial, sans-serif" font-size="16" font-weight="700">4</text>
    <text x="72" y="89" fill="#17202a" font-family="DejaVu Sans, Arial, sans-serif" font-size="20" font-weight="700">Results &amp; Administration</text>
    <rect x="596" y="66" width="112" height="32" rx="5" fill="#176b5c"/>
    <text x="652" y="87" text-anchor="middle" fill="#ffffff" font-family="DejaVu Sans, Arial, sans-serif" font-size="13" font-weight="700">Export CSV</text>

    <rect x="28" y="116" width="418" height="252" rx="6" fill="#ffffff" stroke="#d7dde5"/>
    <rect x="28" y="116" width="418" height="42" rx="6" fill="#eef3f1"/>
    <text x="46" y="142" fill="#2c3948" font-family="DejaVu Sans, Arial, sans-serif" font-size="12" font-weight="700">Participant</text>
    <text x="232" y="142" fill="#2c3948" font-family="DejaVu Sans, Arial, sans-serif" font-size="12" font-weight="700">Progress</text>
    <text x="342" y="142" fill="#2c3948" font-family="DejaVu Sans, Arial, sans-serif" font-size="12" font-weight="700">Average</text>
    <g fill="#647184" font-family="DejaVu Sans, Arial, sans-serif" font-size="12">
      <text x="46" y="188">account-001</text><text x="232" y="188">Complete</text><text x="360" y="188">4.2</text>
      <text x="46" y="234">account-002</text><text x="232" y="234">In progress</text><text x="360" y="234">3.8</text>
      <text x="46" y="280">account-003</text><text x="232" y="280">Complete</text><text x="360" y="280">4.5</text>
      <text x="46" y="326">account-004</text><text x="232" y="326">Review</text><text x="360" y="326">4.0</text>
    </g>
    <g stroke="#e4e8ed">
      <path d="M28 204H446"/><path d="M28 250H446"/><path d="M28 296H446"/>
    </g>

    <text x="478" y="130" fill="#17202a" font-family="DejaVu Sans, Arial, sans-serif" font-size="15" font-weight="700">Dimension averages</text>
    <text x="478" y="171" fill="#647184" font-family="DejaVu Sans, Arial, sans-serif" font-size="12">Dimension A</text>
    <rect x="478" y="182" width="224" height="16" rx="4" fill="#eef1f4"/>
    <rect x="478" y="182" width="188" height="16" rx="4" fill="#176b5c"/>
    <text x="478" y="231" fill="#647184" font-family="DejaVu Sans, Arial, sans-serif" font-size="12">Dimension B</text>
    <rect x="478" y="242" width="224" height="16" rx="4" fill="#eef1f4"/>
    <rect x="478" y="242" width="162" height="16" rx="4" fill="#9a5b18"/>
    <text x="478" y="291" fill="#647184" font-family="DejaVu Sans, Arial, sans-serif" font-size="12">Dimension C</text>
    <rect x="478" y="302" width="224" height="16" rx="4" fill="#eef1f4"/>
    <rect x="478" y="302" width="201" height="16" rx="4" fill="#2d7ff9"/>
    <rect x="478" y="340" width="108" height="30" rx="5" fill="#ffffff" stroke="#cfd6df"/>
    <text x="532" y="360" text-anchor="middle" fill="#2c3948" font-family="DejaVu Sans, Arial, sans-serif" font-size="12" font-weight="700">View Details</text>
  </g>
</svg>
